<?xml version="1.0" encoding="utf-8"?>
<!-- Generator: Adobe Illustrator 16.0.0, SVG Export Plug-In . SVG Version: 6.00 Build 0)  -->
<svg version="1.2" baseProfile="tiny" id="Layer_1" xmlns="http://www.w3.org/2000/svg" xmlns:xlink="http://www.w3.org/1999/xlink"
	 x="0px" y="0px"   viewBox="0 0 1000 1000" xml:space="preserve">
<g>
	<path fill="#FFFFFF" d="M222.239,550.202c-0.911,0.202-2.013,1.465-1.899,2.744c0.164,1.712,2.301,2.512,4.198,2.4
		c2.579-0.145,5.351-1.387,6.497-2.626C227.469,553.615,224.953,549.633,222.239,550.202z"/>
	<path fill="#FFFFFF" d="M198.07,580.128c-1.191-1.52-4.02-1.112-4.376,0.803c-0.36,1.966,1.356,3.975,2.551,5.211
		c1.436,1.483,2.846,2.792,4.647,3.244c0.112-0.018,0.151,0.143,0.189,0c-0.81-0.94-1.551-2.403-1.916-4.324
		C198.814,583.187,198.906,581.175,198.07,580.128z"/>
	<path fill="#FFFFFF" d="M164.819,588.084c-2.803,2.499-3.776,7.502-3.05,12.942c0.683-2.706,2.118-4.054,4.063-5.729
		c1.189-1.037,3.055-2.383,3.409-3.794C169.841,589.151,167.364,586.884,164.819,588.084z"/>
	<path fill="#FFFFFF" d="M141.085,582.938c-2.856,2.582-4.57,7.943-4.276,13.063c0.722-2.924,2.937-4.064,5.506-5.718
		c1.444-0.929,4.415-2.357,4.93-3.82c0.521-1.447-0.16-3.429-1.046-4.171C144.572,580.931,142.083,582.033,141.085,582.938z"/>
	<path fill="#FFFFFF" d="M125.733,568.241c-4.32,2.153-7.735,6.8-8.206,12.502c1.076-2.53,3.824-3.582,6.656-4.764
		c1.667-0.709,4.668-1.493,5.197-2.887c0.44-1.148,0.404-2.951-0.18-3.777C128.58,568.455,126.617,567.801,125.733,568.241z"/>
	<path fill="#FFFFFF" d="M113.019,543.994c-5.221,2.764-8.262,8.162-8.939,15.11c1.013-2.757,3.888-4.18,6.929-5.58
		c1.98-0.895,5.434-1.781,6.02-3.59c0.45-1.399,0.345-3.67-0.359-4.581C115.907,544.358,114.607,544.029,113.019,543.994z"/>
	<g>
		<path id="msi-corporate_x5F_identity-logo-black-cmyk_4_" fill="#231F20" d="M907.554,576.959l43.938-121.153
			c0,0-32.845,0-65.684,6.589l-41.531,114.567h63.277V576.959z M900.052,423.083l-8.432,23.265
			c33.044-6.589,65.682-6.589,65.682-6.589l8.438-23.268C965.736,416.491,932.897,416.491,900.052,423.083 M670.975,548.206
			c19.755,3.606,40.124,5.485,60.919,5.485h0.006c21.344,0,36.845-4.756,38.515-19.255c0.817-6.896-5.705-11.862-17.652-18.452
			c-13.673-7.541-25.159-11.311-37.036-19.255c-11.883-7.95-17.002-20.455-12.991-33.699c4.67-15.479,15.529-24.441,32.094-32.901
			c19.411-9.909,34.79-13.636,72.23-13.636c23.575,0,46.636,2.278,68.951,6.592l-8.039,22.15
			c-19.76-3.601-40.116-5.475-60.912-5.475c-21.355,0-36.861,4.761-38.534,19.249c-0.801,6.913,5.711,11.893,17.67,18.465
			c13.663,7.534,25.162,11.3,37.034,19.25c11.899,7.944,17.005,20.449,13,33.707c-4.678,15.45-15.549,24.424-32.101,32.889
			c-19.414,9.913-34.794,13.634-72.229,13.634h-0.006c-23.569,0-46.632-2.279-68.94-6.601L670.975,548.206z M575.58,576.959
			l36.651-101.091c12.228-33.705-32.628-21.388-42.651-13.638c-7.871,6.075-22.213,19.938-27.499,34.482l-29.091,80.247h-0.006
			H449.71l36.648-101.091c12.214-33.705-32.625-21.388-42.656-13.638c-7.873,6.075-22.231,19.938-27.508,34.5l-29.079,80.229
			h-63.296l58.187-160.468c20.15,0,31.054,4.638,40.214,13.648c3.338,3.289,5.43,7.558,6.573,12.102
			c11.872-7.179,22.365-12.556,29.428-15.313c13.161-5.157,29.505-10.443,49.665-10.434c20.142,0,31.052,4.638,40.2,13.648
			c3.359,3.289,5.453,7.558,6.593,12.102c11.865-7.179,22.369-12.556,29.432-15.313c13.147-5.157,29.503-10.443,49.653-10.434
			c20.153,0,31.057,4.638,40.206,13.648c9.146,8.971,8.94,25.384,5.624,34.483l-40.728,112.337H575.58V576.959L575.58,576.959z"/>
		<path fill="#EC1C24" d="M252.918,546.436c-7.086,16.257-22.352,46.48-45.17,66.725c-12.97,12.259-29.079,22.521-46.736,29.809
			c-0.331,0.124-0.669,0.196-1.013,0.196c-0.352,0-0.705-0.069-1.037-0.208c-17.856-7.566-32.709-17.022-46.741-29.745
			c-17.802-16.148-33.865-39.877-45.237-66.821c-16.861-39.971-25.13-86.324-25.322-139.744c-0.009-0.862,0.433-1.671,1.167-2.14
			c34.39-22.384,80.869-41.854,116.482-48.416c0.321-0.059,0.648-0.059,0.973,0c14.942,2.785,30.796,7.393,48.597,14.146
			c25.754,9.77,50.182,21.843,68.522,34.111c0.716,0.469,1.147,1.267,1.147,2.115C278.375,458.967,269.822,505.488,252.918,546.436z
			"/>
		<path fill="#FFFFFF" d="M238.204,524.395c-1.639,1.071-4.984-0.578-6.383,0.849c-0.762,5.449,5.891,1.438,6.586-0.606
			C238.4,524.491,238.383,524.341,238.204,524.395z"/>
		<path fill="#FFFFFF" d="M236.521,504.565c-0.795,1.095-2.529,1.221-3.687,1.96C232.584,510.677,237.123,506.329,236.521,504.565z"
			/>
		<path fill="#FFFFFF" d="M225.287,541.861c2.127-3.082,2.813-8.082,3.564-12.764c0.386-2.513,0.713-4.786,1.45-6.644
			c0.801-1.997,2.171-3.556,2.644-5.586c0.455-1.93-0.321-3.362-1-4.938c-1.585-3.644-3.159-7.219-6.111-9.076
			c-3.477-2.199-8.928-1.572-13.868-1.174c-2.325,0.188-4.656,0.419-6.919,0.721c-2.439,0.322-4.897,0.582-7.21,0.536
			c-9.9-0.168-15.61-4.966-16.686-13.93c-0.009-0.059-0.012-0.105-0.091-0.093c-1.381,8.937,3.665,14.259,10.947,15.826
			c0.559,1.236,1.874,2.335,1.458,4.044c-0.5,2.038-3.848,2.126-6.208,1.79c-2.543-0.34-4.456-1.459-5.929-2.511
			c-3.456-2.494-5.769-5.905-7.75-9.073c1.683,4.833,4.851,9.031,8.667,11.865c3.845,2.858,9.508,5.193,15.955,4.765
			c4.342-0.289,8.3-1.271,11.771-2.604c-5.018-0.031-11.707,0.15-13.132-3.333c-0.463-1.137-0.212-2.923,0.55-3.954
			c4.234,0.513,8.028-0.396,11.583-0.627c2.964-0.191,6.221,0.293,8.661,1.083c2.501,0.806,4.623,2.18,5.833,3.953
			c2.467,3.622,2.761,8.938,1.829,14.106c-0.831,4.645-2.54,8.896-4.101,12.768c-3.341,8.324-10.021,20.965-15.319,25.626
			c-6.396,5.387-14.341,8.501-23.624,10.874c-3.733,0.951-7.933,1.713-11.949,1.883c-9.514,0.419-17.198-0.905-22.249-5.393
			c-2.328-2.077-4.129-4.963-5.469-8.265c-3.054-7.539-4.289-16.854-3.282-27.509c-0.315-0.08-0.56,0.29-0.725,0.45
			c-0.297,0.253-0.541,0.561-0.828,0.812c-3.357,2.969-10.371,7.33-16.595,4.405c-1.143-0.53-2.215-1.408-2.829-2.612
			c-1.714-3.295,0.858-6.12,2.829-7.641c1.482-1.146,3.455-2.582,5.929-1.976c1.453,0.356,3.742,2.234,3.739,3.772
			c-0.003,0.878-1.995,2.533-3.557,2.521c-1.587-0.021-2.631-1.276-3.375-2.074c-0.18-0.188-0.457-0.761-0.822-0.538
			c-1.68,7.563,8.939,7.271,12.581,3.677c3.146-3.097,4.338-9.605,1.464-13.748c-1.683-2.413-4.87-3.299-8.394-2.786
			c-3.162,0.464-7.349,1.324-9.296,2.829c-2.746,2.113-3.117,6.549-4.196,10.028c-1.022,3.293-2.389,6.36-4.107,8.806
			c-0.212,0.308-0.621,0.567-0.548,0.989c4.207,0.272,7.788,1.363,9.036,4.406c0.475,1.196,0.614,3.037,0.357,4.228
			c-0.592,2.753-2.158,5.009-0.907,8.269c2.041,5.376,9.85,6.414,12.304,11.323c1.01,2.021,0.801,4.855,2.1,6.836
			c1.609,2.446,5.393,2.147,8.94,2.783c1.971,0.355,3.952,0.809,5.468,1.706c2.891,1.72,2.986,5.706,6.479,6.928
			c2.115,0.727,3.88-0.311,5.657-0.809c1.35-0.385,2.791-0.601,4.1-0.823c3.026-0.476,5.256,0.217,8.115,1.089
			c2.86,0.865,5.742,0.911,8.12,0c2.319-0.887,3.996-2.476,5.835-3.952c3.653-2.926,7.275-5.712,12.219-7.273
			c4.991-1.59,10.945-2.378,13.686-5.852c1.436-1.82,2.084-4.572,2.729-7.55c1.252-5.724,3.111-10.894,5.75-14.922
			C221.896,545.474,223.913,543.857,225.287,541.861z"/>
		<path fill="#FFFFFF" d="M203.35,495.615c3.246,0.256,7.655,1.252,8.847,3.147c-0.787-2.579-5.685-16.885-28.545-15.905
			c4.568,1.367,9.768,2.93,13.686,5.392c1.208,0.761,2.941,1.865,2.736,3.682c-0.23,2.002-4.026,3.943-6.753,4.135
			c-2.954,0.209-5.196-1.17-6.928-2.068c2.899,3.696,7.649,6.467,14.411,5.754c-0.167-0.836-1.332-1.839-0.828-3.147
			C200.315,495.736,201.782,495.489,203.35,495.615z"/>
		<path fill="#FFFFFF" d="M169.739,533.053c1.55,0.167,3.073,1.028,4.292,1.438c0.11-0.445-0.429-0.642-0.732-0.898
			c-3.465-2.965-11.527-1.761-13.313,1.881c0.315,0.627,1.411,0.697,1.553,1.444c0.152,0.854-1.049,2.039-1.642,2.697
			c-1.615,1.745-3.144,2.741-4.923,3.952c-0.899,0.598-1.674,1.632-2.738,1.526c0.533-2.134,1.676-2.982,2.646-4.854
			c0.631-1.236,2.249-4.493,1.365-5.848c-0.549-0.826-3.221-0.383-3.65-1.345c-0.349-0.781,0.299-1.784,0.721-2.252
			c1.271-1.357,3.88-2.127,6.206-2.612c-3.533,0.006-9.971,1.168-11.486,4.144c-1.013,1.979-0.115,4.776,2.096,5.03
			c0.849,2.75-1.365,6.166-3.011,7.458c-0.366,0.297-0.892,0.659-1.368,0.716c-2.748,0.378-1.979-2.81-2.64-4.755
			c-0.25-0.729-0.719-1.29-1.1-1.807c-0.775,7.042,0.76,14.022,2.375,19.596c-0.182-1.967,0.167-3.903,1.368-4.493
			c2.802-1.365,6.571,0.721,9.847,0.892c3.41,0.196,5.38-1.914,7.755-1.972c1.229-0.026,2.136,0.82,3.283,0.544
			c0.752-0.19,1.417-1.608,2.093-2.513c0.677-0.905,1.52-1.849,2.375-2.341c3.268-1.872,6.621,0.706,8.757,1.892
			c-1.89-3.524-8.272-6.239-13.133-3.866c-0.993,0.48-1.839,1.746-3.011,2.428c-1.862,1.067-4.341,0.769-6.746,0.621
			c-0.825-0.049-1.729,0.196-2.372-0.356c0.614-3.081,3.563-3.181,5.734-4.496c3.144-1.89,6.153-4.752,6.482-9.257
			c0.045-0.589-0.208-1.453,0.277-2.065C167.549,533.021,168.676,532.933,169.739,533.053z"/>
		<path fill="#FFFFFF" d="M85.479,453.027c0.677,1.415-0.021,3.318,0.094,4.677c2.133-5.724,6.209-10.257,10.121-14.201
			c0.216-0.223,0.785-0.75,0.452-0.633c-2.057,0.973-3.227,2.814-6.02,3.062c-1.592-1.783-1.577-7.209,0.548-8.363
			c2.602,0.823,4.319-1.466,4.013-3.86c-0.493-3.823-5.218-6.371-7.386-7.915c1.148,1.434,3.344,2.757,3.83,4.849
			c0.176,0.76,0.132,2.213-0.633,2.43c-1.216,0.346-1.924-0.992-3.109-0.81c-1.038,0.166-1.517,1.978-1.729,3.233
			c-0.215,1.241-0.342,3.316-0.275,4.771c0.031,0.782,0.319,1.994-0.272,2.6c-0.708-0.347-0.87-1.276-1.188-1.973
			c-1.131-2.496-3.097-5.846-2.283-9.175c0.504-0.193,1.464,0.066,1.826-0.268c0.166-2.068-1.306-3.987-2.644-5.304
			c-1.846-1.823-5.477-3.071-8.39-2.063c1.909,0.324,6.164,0.661,6.201,2.779c0.015,0.787-0.93,1.876-1.183,2.515
			c-1.485,3.688,0.214,8.413,2,10.788c1.042,1.378,2.518,2.663,1.641,5.215c-1.143-0.062-2.21-0.853-3.279-1.436
			c-1.523-0.839-3.117-1.641-3.836-2.972c-0.775-1.441-0.831-2.925-1.822-4.043c-2.554-2.876-8.094-4.895-12.133-2.436
			c3.412-0.128,6.587,0.117,7.937,2.342c0.59,0.979,0.973,2.637,1.094,4.137c0.047,0.586-0.121,1.393,0.183,1.885
			c0.53,0.876,2.161,0.72,3.105,1.259c1.276,0.74,2.031,2.722,3.462,3.959c0.342,0.3,0.792,0.658,1.181,0.896
			C79.173,450.296,84.392,450.772,85.479,453.027z"/>
		<path fill="#FFFFFF" d="M158.257,406.402c1.057,0.895,3.037,2.418,4.222,2.39c1.883-0.042,2.832-1.727,4.148-2.499
			c-6.541-2.905-12.54-7.092-18.405-10.548c0.869,1.359,2.07,2.537,3.244,3.904C153.592,402.135,155.738,404.245,158.257,406.402z"
			/>
		<path fill="#FFFFFF" d="M106.902,533.838c-3.575-5.516-21.603-28.83-7.513-63.165c19.234-46.869,71.248-34.113,76.148-32.202
			c0.571-3.918,2.325-7.977,6.88-8.98c1.905-0.417,3.795-0.248,5.54,0.023c-4.694,1.736-9.727,3.86-9.489,8.813
			c0.204,4.4,4.73,7.543,8.489,8.23h-0.017c0,0,2.984,0.642,5.15-0.708c0.047-0.025,0.071-0.05,0.108-0.067
			c0.59-0.349,1.121-0.732,1.869-0.961c1.559-0.486,3.143-0.608,4.758-0.224c0.466,0.104,1.306,0.836,2.054,0.795
			c0.497-0.026,1.232-0.694,1.909-0.825c1.839-0.324,3.606,0.665,5.26,1.346c1.168,0.476,4.231,0.918,4.413,2.458
			c0.136,1.102-1.605,2.407-2.492,3.076c-1.223,0.926-2.337,1.478-3.843,2.094c5.083-0.429,15.226-4.317,13.69,2.225
			c-0.163,0.708-0.536,1.282-0.407,1.608c5.241-1.771,6.892-6.2,6.108-12.412c-0.71,0.217-1.26,1.544-1.838,1.953
			c0-0.01,0-0.029-0.009-0.056c-0.009-1.78,0.127-4.432-1.093-5.561c0.583,3.257-1.115,4.827-3.458,5.94
			c-1.869-3.233-3.977-6.162-6.275-8.822c-0.244,1.025-0.111,2.339-0.43,3.33c-0.672-1.847-2.13-2.911-3.96-3.155
			c-1.181-0.166-2.468,0.227-3.869,0.004c-1.8-0.278-3.898-1.575-4.028-2.968c-0.232-2.246,3.833-3.298,5.876-3.835
			c0.436,1.441,1.048,2.656,1.522,4.055c1.9-1.474,4.91-3.771,8.736-3.893c0.911-0.023,2.964,0.347,3.276,0.99
			c0.734,1.506-1.151,3.263-1.732,3.881c-0.321,0.324-0.859,0.728-0.695,0.917c3.527-0.896,5.148-3.189,7.572-4.897
			c1.294,1.688,1.787,5.333,1.6,7.776c2.788-2.744,2.855-7.476,2.596-12.458c2.896,0.954,4.845,3.155,6.778,5.385
			c-1.568-2.94-3.646-5.268-6.16-6.838c-0.887-0.557-2.038-0.853-2.719-1.515c-0.607-0.601-1.368-2.731-2.167-2.872
			c-1.044-0.19-2.38,0.971-3.626,1.066c-2.143,0.152-3.315-1.34-3.736-3.465c-5.246,1.485-7.276-1.762-8.483-5.696
			c-0.207-0.698-0.207-1.618-0.528-2.381c-0.401-0.918-2.476-1.884-3.563-2.303c-1.482-0.575-3.273-0.829-4.97-0.56
			c-1.516,0.244-2.661,0.987-4.443,1.087c-4.297,0.245-8.793-1.649-12.284-3.332c-10.424-5.04-18.997-12.647-26.136-21.702
			c-0.284-0.362-0.484-0.893-0.979-1.043c1.093,3.489,3.126,6.383,5.015,9.096c5.758,8.242,13.286,14.297,20.639,20.035
			c-2.986,0.305-5.265-0.76-7.275-1.866c-2.032-1.117-4.104-2.325-5.895-3.793c-7.679,6.571-23.009,7.337-35.388,10.26
			c5.157-0.148,12.82,1.482,17.311,2.221c-0.046,0.006-0.086,0.016-0.13,0.024v-0.006c-21.581,0.854-40.222,7.191-53.142,19.429
			c3.356-1.245,6.397-2.795,10.121-3.681c-5.339,4.875-10.625,9.934-14.862,15.815c-4.233,5.88-8.766,12.045-8.942,21.759
			c2.622-2.509,5.253-5.795,8.847-7.64c-3.011,6.096-5.598,13.114-7.655,20.494c-1.815,6.484-4.46,17.32-0.191,23.364
			c0.284-2.175,0.284-4.632,1.738-5.66C89.008,509.818,93.334,521.901,106.902,533.838z M202.786,415.697
			c1.226,0.278,2.679,0.243,3.322,0.605c1.228,0.723,1.235,2.48,2.038,3.893c-4.879,0.81-6.473-2.717-8.794-5.286
			C200.167,414.968,201.426,415.388,202.786,415.697z"/>
		<path fill="#FFFFFF" d="M143.306,476.427c-1.6,0-6.96-0.875-7.115,0.901c-0.091,1.084,2.218,1.92,3.468,2.244
			c4.771,1.234,11.329,0.789,16.141,0.362c6.788-0.616,13.56-2.236,18.969-4.228c8.964-3.289,16.249-7.947,22.184-13.981
			c1.642-1.672,1.479-2.135-0.268-0.644c-4.525,3.866-9.974,6.89-15.993,9.329C170.078,474.697,157.9,476.427,143.306,476.427z"/>
		<path fill="#FFFFFF" d="M167.467,498.812c-8.082,0.634-15.36-0.267-21.697-1.714c-6.253-1.424-11.937-4.236-15.874-7.811
			c-1.64-1.498-2.657-4.241-5.386-3.603c-0.25,1.988,1.346,3.446,2.47,4.672c3.524,3.863,8.748,6.412,14.22,8.091
			C148.757,500.774,159.308,500.989,167.467,498.812z"/>
		<path fill="#FFFFFF" d="M188.623,474.806c-9.405,5.056-19.838,9.522-33.466,10.338c-5.549,0.334-11.02-0.87-15.045-2.333
			c-1.919-0.705-4.093-1.644-5.925-2.698c-1.421-0.816-4.645-2.366-4.568-4.14c0.1-2.205,5.263-2.707,7.393-2.776
			c47.579-1.582,56.879-22.329,56.842-23.177c-0.031-0.738-0.815,0.123-0.815,0.123c-12.482,16.07-44.63,17.833-44.63,17.833
			c-7.959,1.116-15.961-0.697-20.062-4.761c-0.892-0.886-1.624-2.126-1.919-3.507c-0.924,1.08-1.547,2.243-2.637,3.409
			c-1.057,1.132-4.157,4.494-4.375,0.542c-0.174-2.935,0.681-3.541,1.821-5.3c0.595-0.918,1.223-1.841,1.732-2.514
			c3.388-4.452,6.2-9.024,10.156-12.678c0.336-0.319,0.985-0.691,0.819-0.987c-23.099,10.101-30.204,28.449-32.767,37.659
			c-1.315,4.711-2.104,10.102-2.104,15.554c0,5.624,0.757,10.949,1.916,15.82c2.316,9.722,5.062,16.489,9.326,24.07
			c1.423-1.906,1.976-4.446,2.789-6.786c0.874-2.509,1.495-5.802,2.729-7.852c2.899-4.822,18.771-3.583,14.432-6.908
			c-1.252-0.969-2.445-2.103-3.556-3.242c-2.193-2.247-4.246-4.909-6.108-7.549c-3.707-5.262-6.822-11.598-7.119-19.864
			c4.237,10.922,10.645,20.104,20.891,25.078c3.406,1.656,7.377,3.411,11.947,3.323c-12.101-2.304-19.517-11.643-24.535-21.485
			c-0.787-1.533-1.91-2.992-2.278-4.309c-0.148-0.53-0.212-1.208-0.085-1.712c0.719-3.025,4.387-1.537,6.564-0.715
			c1.334,0.513,2.797,0.932,4.011,1.252c8.517,2.307,17.833,3.785,28.547,2.707c6.374-0.65,11.994-2.253,16.955-4.315
			C180.441,480.833,184.898,478.217,188.623,474.806z"/>
		<path fill="#A6A8AB" d="M284.006,400.211c-28.242-19.438-79.853-43.351-122.67-51.241c-1.158-0.198-1.745-0.189-2.761,0
			c-41.861,7.612-92.634,31.153-122.669,51.241c-0.89,0.552-1.644,1.939-1.644,3.017c-0.164,61.609,10.922,110.227,26.247,146.458
			c9.814,23.361,25.868,50.257,46.958,69.245c15.6,14.3,31.454,23.962,51.11,32.008c0.795,0.319,2.012,0.308,2.761,0
			c20.834-8.242,38.024-19.632,51.115-32.008c21.341-18.948,37.299-47.102,46.955-69.245
			c17.261-41.828,26.417-90.819,26.248-146.458C285.656,402.094,284.957,400.807,284.006,400.211z M252.918,546.436
			c-7.086,16.257-22.352,46.48-45.17,66.725c-12.97,12.259-29.079,22.521-46.736,29.809c-0.331,0.124-0.669,0.196-1.013,0.196
			c-0.352,0-0.705-0.069-1.037-0.208c-17.856-7.566-32.709-17.022-46.741-29.745c-17.802-16.148-33.865-39.877-45.237-66.821
			c-16.861-39.971-25.13-86.324-25.322-139.744c-0.009-0.862,0.433-1.671,1.167-2.14c34.39-22.384,80.869-41.854,116.482-48.416
			c0.321-0.059,0.648-0.059,0.973,0c14.942,2.785,30.796,7.393,48.597,14.146c25.754,9.77,50.182,21.843,68.522,34.111
			c0.716,0.469,1.147,1.267,1.147,2.115C278.375,458.967,269.822,505.488,252.918,546.436z"/>
	</g>
</g>
</svg>
