<?xml version="1.0" encoding="utf-8"?>
<!-- Generator: Adobe Illustrator 24.2.0, SVG Export Plug-In . SVG Version: 6.00 Build 0)  -->
<svg version="1.1" id="Layer_1" xmlns="http://www.w3.org/2000/svg" xmlns:xlink="http://www.w3.org/1999/xlink" x="0px" y="0px"
	 viewBox="0 0 512 512" style="enable-background:new 0 0 512 512;" xml:space="preserve">
<g>
	<path d="M125.1,273.3c-1.2,4.8-3.8,8.5-7.9,11c-3.8,2.3-8.5,3.5-14.3,3.5c-12.3,0-17.3-4.8-15.1-14.5l5.2-21.5c0.9-3.8,2.9-7,6-9.5
		c4.1-3.4,9.7-5.1,16.8-5.1c5.9,0,10.1,1.3,12.7,3.9c2.3,2.3,3,5.4,2.2,9.1L125.1,273.3z M109,251l-5.9,24.4
		c-0.4,1.8,0.2,2.6,1.9,2.6c2,0,3.3-0.9,3.7-2.7l5.8-24.2c0.3-1.4,0.5-2.4,0.4-2.9c-0.1-0.9-0.8-1.4-2.1-1.4c-1.3,0-2.2,0.4-2.8,1.2
		C109.8,248.4,109.4,249.4,109,251z"/>
	<path d="M152.8,286.4h-18.2l3.5-48.4h16.2l-5.8,37.1l13.6-37H180l-4.8,37l12.3-37h14.2l-19.8,48.4h-18.5l3.8-37L152.8,286.4z"/>
	<path d="M212.6,287.7c-6.1,0-10.5-1.4-13.1-4.2c-2.2-2.3-2.9-5.2-2.1-8.6l5.5-23.6c1.1-4.7,3.8-8.3,8-10.8c3.8-2.3,8.5-3.4,14-3.4
		c5.7,0,9.7,1.2,12.3,3.8c2.5,2.5,3.3,6,2.2,10.4l-3.1,13.1h-21.3l-2.2,9.7c-0.7,2.7,0.1,4.2,2.2,4.2c1.9,0,3.1-1.4,3.8-4.2l1.5-6.4
		h15.3l-1,4.1c-1.4,6.1-4.3,10.5-8.5,13C222.9,286.7,218.4,287.7,212.6,287.7z M222.5,246.6c-2.1,0-3.4,1-3.9,3.2l-1.4,5.8h5.9
		l1.4-6C225.1,247.7,224.4,246.6,222.5,246.6z"/>
	<path d="M253,286.4h-15.7l11.7-48.4h15.7l-1.2,5.2c1.2-1.7,3.1-3.1,5.6-4.4s4.9-1.9,7.2-1.9c4.5,0,7.1,1.6,7.8,4.8
		c0.4,1.8,0.1,4.6-0.8,8.7l-3.3,13.8h-15.8l2.9-11.8c0.6-2.4,0-3.7-1.8-3.7c-2,0-3.3,1.3-3.8,3.9L253,286.4z"/>
	<path d="M301,287.7c-8.3,0-13.6-2.1-15.7-6.3c-1.5-2.9-1.6-7.1-0.2-12.7l6.6-26.9c2.9-11.7,11.5-17.6,26-17.6
		c9.2,0,14.7,2.2,16.4,6.4c1,2.4,0.7,6.9-1,13.5c-0.3,1-0.5,2.1-0.9,3.4h-17l2.2-8.8c0.7-2.9-0.2-4.4-2.7-4.4c-1.8,0-3.2,0.6-4,1.8
		c-0.5,0.7-0.9,1.8-1.3,3.5l-8.1,33.1c-0.7,3.1,0.2,4.6,2.9,4.6c2.5,0,4.2-1.5,4.9-4.5l2.6-10.6h17.1l-2.4,10
		c-1,4.1-3.3,7.6-6.8,10.3C314.7,286,308.7,287.7,301,287.7z"/>
	<path d="M386.3,286.4h-14.3l13-60.8h14.3L386.3,286.4z"/>
	<path d="M449.5,286.4h-15.8l11.8-48.4h15.8l-1.3,5.2c1.2-1.7,3.1-3.1,5.7-4.4c2.5-1.2,5-1.9,7.2-1.9c4.6,0,7.2,1.6,7.9,4.8
		c0.4,1.8,0.1,4.6-0.9,8.7l-3.4,13.8h-16l2.9-11.8c0.6-2.4,0-3.7-1.8-3.7c-2,0-3.3,1.3-3.9,3.9L449.5,286.4z"/>
	<path d="M336.4,251.5c1.2-4.8,3.8-8.5,7.9-11c3.8-2.3,8.5-3.5,14.3-3.5c12.3,0,17.3,4.8,15.1,14.5l-5.2,21.5c-0.9,3.8-2.9,7-6,9.5
		c-4.1,3.4-9.7,5.1-16.8,5.1c-5.9,0-10.1-1.3-12.7-3.9c-2.3-2.3-3-5.4-2.2-9.1L336.4,251.5z M352.6,273.8l5.9-24.4
		c0.4-1.8-0.2-2.6-1.9-2.6c-2,0-3.3,0.9-3.7,2.7l-5.9,24.3c-0.3,1.4-0.5,2.4-0.4,2.9c0.1,0.9,0.8,1.4,2.1,1.4c1.3,0,2.2-0.4,2.8-1.2
		C351.8,276.4,352.2,275.4,352.6,273.8z"/>
	<path d="M400.2,251.5c1.2-4.8,3.8-8.5,7.9-11c3.8-2.3,8.5-3.5,14.3-3.5c12.3,0,17.3,4.8,15.1,14.5l-5.2,21.5c-0.9,3.8-2.9,7-6,9.5
		c-4.1,3.4-9.7,5.1-16.8,5.1c-5.9,0-10.1-1.3-12.7-3.9c-2.3-2.3-3-5.4-2.2-9.1L400.2,251.5z M416.3,273.8l5.9-24.4
		c0.4-1.8-0.2-2.6-1.9-2.6c-2,0-3.3,0.9-3.7,2.7l-5.9,24.3c-0.3,1.4-0.5,2.4-0.4,2.9c0.1,0.9,0.8,1.4,2.1,1.4c1.3,0,2.2-0.4,2.8-1.2
		C415.6,276.4,415.9,275.4,416.3,273.8z"/>
	<path d="M88.4,228.9c-2.5-2.2-8.9-3.3-19-3.3H52.6l-6.7,28H31l2,8.8h10.8l-5.7,24h16.7l5.6-23.3c10.6,0,17.7-1.4,21.5-4
		c3.3-2.3,5.9-7.4,7.7-15.1C91.3,236.2,91,231.2,88.4,228.9z M72.5,244.6c-1,4.2-2.2,6.8-3.6,7.8c-1,0.8-3.1,1.2-6.3,1.2l4.4-18.6
		c3.7,0,5.7,0.4,6.3,1.2C73.9,237.1,73.6,240,72.5,244.6z"/>
</g>
</svg>
